<svg id="Capa_1" data-name="Capa 1" xmlns="http://www.w3.org/2000/svg" xmlns:xlink="http://www.w3.org/1999/xlink" viewBox="0 0 64 64"><defs><style>.cls-1{fill:url(#Degradado_sin_nombre_20);}.cls-2{opacity:0.7;}.cls-3{opacity:0;}.cls-4{opacity:0.01;}.cls-5{opacity:0.03;}.cls-6{opacity:0.04;}.cls-7{opacity:0.06;}.cls-8{opacity:0.07;}.cls-9{opacity:0.08;}.cls-10{opacity:0.1;}.cls-11{opacity:0.11;}.cls-12{opacity:0.13;}.cls-13{opacity:0.14;}.cls-14{opacity:0.15;}.cls-15{opacity:0.17;}.cls-16{opacity:0.18;}.cls-17{opacity:0.2;}.cls-18{opacity:0.21;}.cls-19{opacity:0.23;}.cls-20{opacity:0.24;}.cls-21{opacity:0.25;}.cls-22{opacity:0.27;}.cls-23{opacity:0.28;}.cls-24{opacity:0.3;}.cls-25{opacity:0.31;}.cls-26{opacity:0.32;}.cls-27{opacity:0.34;}.cls-28{opacity:0.35;}.cls-29{opacity:0.37;}.cls-30{opacity:0.38;}.cls-31{opacity:0.39;}.cls-32{opacity:0.41;}.cls-33{opacity:0.42;}.cls-34{opacity:0.44;}.cls-35{opacity:0.45;}.cls-36{opacity:0.46;}.cls-37{opacity:0.48;}.cls-38{opacity:0.49;}.cls-39{opacity:0.51;}.cls-40{opacity:0.52;}.cls-41{opacity:0.54;}.cls-42{opacity:0.55;}.cls-43{opacity:0.56;}.cls-44{opacity:0.58;}.cls-45{opacity:0.59;}.cls-46{opacity:0.61;}.cls-47{opacity:0.62;}.cls-48{opacity:0.63;}.cls-49{opacity:0.65;}.cls-50{opacity:0.66;}.cls-51{opacity:0.68;}.cls-52{opacity:0.69;}.cls-53{opacity:0.7;}.cls-54{opacity:0.72;}.cls-55{opacity:0.73;}.cls-56{opacity:0.75;}.cls-57{opacity:0.76;}.cls-58{opacity:0.77;}.cls-59{opacity:0.79;}.cls-60{opacity:0.8;}.cls-61{opacity:0.82;}.cls-62{opacity:0.83;}.cls-63{opacity:0.85;}.cls-64{opacity:0.86;}.cls-65{opacity:0.87;}.cls-66{opacity:0.89;}.cls-67{opacity:0.9;}.cls-68{opacity:0.92;}.cls-69{opacity:0.93;}.cls-70{opacity:0.94;}.cls-71{opacity:0.96;}.cls-72{opacity:0.97;}.cls-73{opacity:0.99;}.cls-74{stroke:#fff;stroke-width:0.74px;fill:url(#linear-gradient);}.cls-74,.cls-75,.cls-78,.cls-79{stroke-miterlimit:10;}.cls-75,.cls-78,.cls-79{fill:none;}.cls-75{stroke:#282828;}.cls-76{fill:#606060;}.cls-77{fill:#6d6d6d;}.cls-78{stroke:#6d6d6d;}.cls-79{stroke:#606060;}.cls-80{fill:#282828;}.cls-81{fill:#e00000;}</style><linearGradient id="Degradado_sin_nombre_20" x1="3.67" y1="32.25" x2="60.33" y2="32.25" gradientUnits="userSpaceOnUse"><stop offset="0" stop-color="red"/><stop offset="1" stop-color="#5b0024"/></linearGradient><linearGradient id="linear-gradient" x1="16.27" y1="16.51" x2="47.99" y2="48.24" gradientUnits="userSpaceOnUse"><stop offset="0" stop-color="#c3c4c3"/><stop offset="0.22" stop-color="#dadada"/><stop offset="0.48" stop-color="#eeefee"/><stop offset="0.75" stop-color="#fbfbfb"/><stop offset="1" stop-color="#fff"/></linearGradient></defs><title>Bloque</title><circle class="cls-1" cx="32" cy="32.25" r="28.33"/><g class="cls-2"><path class="cls-3" d="M34.75,56.68A23.39,23.39,0,1,1,58.14,33.29,23.42,23.42,0,0,1,34.75,56.68Z"/><path class="cls-4" d="M34.72,56.65A23.38,23.38,0,1,1,58.1,33.28,23.4,23.4,0,0,1,34.72,56.65Z"/><path class="cls-5" d="M34.69,56.63A23.36,23.36,0,1,1,58.05,33.26,23.39,23.39,0,0,1,34.69,56.63Z"/><path class="cls-6" d="M34.66,56.6A23.35,23.35,0,1,1,58,33.25,23.38,23.38,0,0,1,34.66,56.6Z"/><path class="cls-7" d="M34.63,56.57A23.34,23.34,0,1,1,58,33.23,23.36,23.36,0,0,1,34.63,56.57Z"/><path class="cls-8" d="M34.59,56.54A23.32,23.32,0,1,1,57.92,33.22,23.35,23.35,0,0,1,34.59,56.54Z"/><path class="cls-9" d="M34.56,56.51A23.31,23.31,0,1,1,57.87,33.2,23.34,23.34,0,0,1,34.56,56.51Z"/><path class="cls-10" d="M34.53,56.48a23.3,23.3,0,1,1,23.3-23.3A23.32,23.32,0,0,1,34.53,56.48Z"/><path class="cls-11" d="M34.5,56.46A23.28,23.28,0,1,1,57.78,33.17,23.31,23.31,0,0,1,34.5,56.46Z"/><path class="cls-12" d="M34.47,56.43A23.27,23.27,0,1,1,57.74,33.16,23.3,23.3,0,0,1,34.47,56.43Z"/><path class="cls-13" d="M34.44,56.4A23.26,23.26,0,1,1,57.69,33.15,23.28,23.28,0,0,1,34.44,56.4Z"/><path class="cls-14" d="M34.4,56.37A23.24,23.24,0,1,1,57.65,33.13,23.27,23.27,0,0,1,34.4,56.37Z"/><path class="cls-15" d="M34.37,56.34A23.23,23.23,0,1,1,57.6,33.12,23.26,23.26,0,0,1,34.37,56.34Z"/><path class="cls-16" d="M34.34,56.32A23.22,23.22,0,1,1,57.56,33.1,23.24,23.24,0,0,1,34.34,56.32Z"/><path class="cls-17" d="M34.31,56.29a23.2,23.2,0,1,1,23.2-23.2A23.23,23.23,0,0,1,34.31,56.29Z"/><path class="cls-18" d="M34.28,56.26A23.19,23.19,0,1,1,57.47,33.07,23.22,23.22,0,0,1,34.28,56.26Z"/><path class="cls-19" d="M34.25,56.23A23.18,23.18,0,1,1,57.42,33.06,23.2,23.2,0,0,1,34.25,56.23Z"/><path class="cls-20" d="M34.21,56.2A23.16,23.16,0,1,1,57.38,33,23.19,23.19,0,0,1,34.21,56.2Z"/><path class="cls-21" d="M34.18,56.18A23.15,23.15,0,1,1,57.33,33,23.18,23.18,0,0,1,34.18,56.18Z"/><path class="cls-22" d="M34.15,56.15A23.14,23.14,0,1,1,57.29,33,23.16,23.16,0,0,1,34.15,56.15Z"/><path class="cls-23" d="M34.12,56.12A23.12,23.12,0,1,1,57.24,33,23.15,23.15,0,0,1,34.12,56.12Z"/><path class="cls-24" d="M34.09,56.09A23.11,23.11,0,1,1,57.2,33,23.14,23.14,0,0,1,34.09,56.09Z"/><path class="cls-25" d="M34.05,56.06A23.1,23.1,0,1,1,57.15,33,23.12,23.12,0,0,1,34.05,56.06Z"/><path class="cls-26" d="M34,56A23.08,23.08,0,1,1,57.11,33,23.11,23.11,0,0,1,34,56Z"/><path class="cls-27" d="M34,56A23.07,23.07,0,1,1,57.06,32.94,23.1,23.1,0,0,1,34,56Z"/><path class="cls-28" d="M34,56A23.06,23.06,0,1,1,57,32.92,23.08,23.08,0,0,1,34,56Z"/><path class="cls-29" d="M33.93,56a23,23,0,1,1,23-23A23.07,23.07,0,0,1,33.93,56Z"/><path class="cls-30" d="M33.9,55.92a23,23,0,1,1,23-23A23.06,23.06,0,0,1,33.9,55.92Z"/><path class="cls-31" d="M33.86,55.9a23,23,0,1,1,23-23A23,23,0,0,1,33.86,55.9Z"/><path class="cls-32" d="M33.83,55.87a23,23,0,1,1,23-23A23,23,0,0,1,33.83,55.87Z"/><path class="cls-33" d="M33.8,55.84a23,23,0,1,1,23-23A23,23,0,0,1,33.8,55.84Z"/><path class="cls-34" d="M33.77,55.81a23,23,0,1,1,23-23A23,23,0,0,1,33.77,55.81Z"/><path class="cls-35" d="M33.74,55.78a23,23,0,1,1,23-23A23,23,0,0,1,33.74,55.78Z"/><path class="cls-36" d="M33.71,55.76A22.95,22.95,0,1,1,56.66,32.81,23,23,0,0,1,33.71,55.76Z"/><path class="cls-37" d="M33.67,55.73A22.94,22.94,0,1,1,56.61,32.79,23,23,0,0,1,33.67,55.73Z"/><path class="cls-38" d="M33.64,55.7A22.92,22.92,0,1,1,56.56,32.78,22.95,22.95,0,0,1,33.64,55.7Z"/><path class="cls-39" d="M33.61,55.67A22.91,22.91,0,1,1,56.52,32.76,22.94,22.94,0,0,1,33.61,55.67Z"/><path class="cls-40" d="M33.58,55.64a22.9,22.9,0,1,1,22.9-22.9A22.92,22.92,0,0,1,33.58,55.64Z"/><path class="cls-41" d="M33.55,55.62A22.88,22.88,0,1,1,56.43,32.73,22.91,22.91,0,0,1,33.55,55.62Z"/><path class="cls-42" d="M33.51,55.59A22.87,22.87,0,1,1,56.38,32.72,22.9,22.9,0,0,1,33.51,55.59Z"/><path class="cls-43" d="M33.48,55.56A22.86,22.86,0,1,1,56.34,32.7,22.88,22.88,0,0,1,33.48,55.56Z"/><path class="cls-44" d="M33.45,55.53A22.84,22.84,0,1,1,56.29,32.69,22.87,22.87,0,0,1,33.45,55.53Z"/><path class="cls-45" d="M33.42,55.5A22.83,22.83,0,1,1,56.25,32.67,22.86,22.86,0,0,1,33.42,55.5Z"/><path class="cls-46" d="M33.39,55.48A22.82,22.82,0,1,1,56.2,32.66,22.84,22.84,0,0,1,33.39,55.48Z"/><path class="cls-47" d="M33.36,55.45a22.8,22.8,0,1,1,22.8-22.8A22.83,22.83,0,0,1,33.36,55.45Z"/><path class="cls-48" d="M33.32,55.42A22.79,22.79,0,1,1,56.11,32.63,22.82,22.82,0,0,1,33.32,55.42Z"/><path class="cls-49" d="M33.29,55.39A22.78,22.78,0,1,1,56.07,32.61,22.8,22.8,0,0,1,33.29,55.39Z"/><path class="cls-50" d="M33.26,55.36A22.76,22.76,0,1,1,56,32.6,22.79,22.79,0,0,1,33.26,55.36Z"/><path class="cls-51" d="M33.23,55.33A22.75,22.75,0,1,1,56,32.59,22.78,22.78,0,0,1,33.23,55.33Z"/><path class="cls-52" d="M33.2,55.31A22.74,22.74,0,1,1,55.93,32.57,22.76,22.76,0,0,1,33.2,55.31Z"/><path class="cls-53" d="M33.17,55.28A22.72,22.72,0,1,1,55.89,32.56,22.75,22.75,0,0,1,33.17,55.28Z"/><path class="cls-54" d="M33.13,55.25A22.71,22.71,0,1,1,55.84,32.54,22.74,22.74,0,0,1,33.13,55.25Z"/><path class="cls-55" d="M33.1,55.22a22.7,22.7,0,1,1,22.7-22.7A22.72,22.72,0,0,1,33.1,55.22Z"/><path class="cls-56" d="M33.07,55.19A22.68,22.68,0,1,1,55.75,32.51,22.71,22.71,0,0,1,33.07,55.19Z"/><path class="cls-57" d="M33,55.17A22.67,22.67,0,1,1,55.71,32.5,22.7,22.7,0,0,1,33,55.17Z"/><path class="cls-58" d="M33,55.14A22.66,22.66,0,1,1,55.66,32.48,22.68,22.68,0,0,1,33,55.14Z"/><path class="cls-59" d="M33,55.11A22.64,22.64,0,1,1,55.62,32.47,22.67,22.67,0,0,1,33,55.11Z"/><path class="cls-60" d="M32.94,55.08A22.63,22.63,0,1,1,55.57,32.45,22.66,22.66,0,0,1,32.94,55.08Z"/><path class="cls-61" d="M32.91,55.05A22.62,22.62,0,1,1,55.53,32.44,22.64,22.64,0,0,1,32.91,55.05Z"/><path class="cls-62" d="M32.88,55a22.6,22.6,0,1,1,22.6-22.6A22.63,22.63,0,0,1,32.88,55Z"/><path class="cls-63" d="M32.85,55A22.59,22.59,0,1,1,55.44,32.41,22.62,22.62,0,0,1,32.85,55Z"/><path class="cls-64" d="M32.82,55A22.58,22.58,0,1,1,55.39,32.39,22.6,22.6,0,0,1,32.82,55Z"/><path class="cls-65" d="M32.78,54.94A22.56,22.56,0,1,1,55.35,32.38,22.59,22.59,0,0,1,32.78,54.94Z"/><path class="cls-66" d="M32.75,54.91A22.55,22.55,0,1,1,55.3,32.36,22.58,22.58,0,0,1,32.75,54.91Z"/><path class="cls-67" d="M32.72,54.89A22.54,22.54,0,1,1,55.26,32.35,22.56,22.56,0,0,1,32.72,54.89Z"/><path class="cls-68" d="M32.69,54.86A22.52,22.52,0,1,1,55.21,32.33,22.55,22.55,0,0,1,32.69,54.86Z"/><path class="cls-69" d="M32.66,54.83A22.51,22.51,0,1,1,55.17,32.32,22.54,22.54,0,0,1,32.66,54.83Z"/><path class="cls-70" d="M32.63,54.8a22.5,22.5,0,1,1,22.5-22.5A22.52,22.52,0,0,1,32.63,54.8Z"/><path class="cls-71" d="M32.59,54.77A22.48,22.48,0,1,1,55.08,32.29,22.51,22.51,0,0,1,32.59,54.77Z"/><path class="cls-72" d="M32.56,54.75A22.47,22.47,0,1,1,55,32.28,22.5,22.5,0,0,1,32.56,54.75Z"/><path class="cls-73" d="M32.53,54.72A22.46,22.46,0,1,1,55,32.26,22.48,22.48,0,0,1,32.53,54.72Z"/><path d="M32.5,54.69A22.44,22.44,0,1,1,54.94,32.25,22.47,22.47,0,0,1,32.5,54.69Z"/></g><path class="cls-74" d="M32,54.69A22.44,22.44,0,1,1,54.44,32.25,22.47,22.47,0,0,1,32,54.69Z"/><rect class="cls-75" x="27.85" y="36.39" width="8.3" height="8.3"/><rect class="cls-75" x="36.15" y="36.39" width="8.3" height="8.3"/><rect class="cls-75" x="36.15" y="28.1" width="8.3" height="8.3"/><circle class="cls-76" cx="27.85" cy="28.1" r="1.87"/><circle class="cls-77" cx="19.56" cy="28.1" r="1.87"/><circle class="cls-77" cx="19.56" cy="36.39" r="1.87"/><circle class="cls-76" cx="27.85" cy="36.39" r="1.87"/><rect class="cls-78" x="19.56" y="28.1" width="8.3" height="8.3"/><circle class="cls-77" cx="36.15" cy="19.8" r="1.87"/><circle class="cls-77" cx="27.85" cy="19.8" r="1.87"/><circle class="cls-76" cx="36.15" cy="28.1" r="1.87"/><circle class="cls-76" cx="36.15" cy="36.39" r="1.87"/><rect class="cls-78" x="27.85" y="19.8" width="8.3" height="8.3"/><rect class="cls-79" x="27.85" y="28.1" width="8.3" height="8.3"/><rect class="cls-78" x="19.56" y="19.8" width="8.3" height="8.3"/><rect class="cls-75" x="27.85" y="28.1" width="8.3" height="8.3"/><circle class="cls-77" cx="19.56" cy="19.8" r="1.87"/><line class="cls-78" x1="36.15" y1="19.8" x2="44.44" y2="28.1"/><circle class="cls-80" cx="44.44" cy="28.1" r="1.87"/><line class="cls-78" x1="27.85" y1="28.1" x2="19.56" y2="19.8"/><circle class="cls-80" cx="27.85" cy="28.1" r="1.87"/><line class="cls-78" x1="19.56" y1="36.39" x2="27.85" y2="44.69"/><circle class="cls-80" cx="27.85" cy="44.69" r="1.87"/><line class="cls-78" x1="19.56" y1="28.1" x2="27.85" y2="36.39"/><line class="cls-78" x1="27.85" y1="19.8" x2="36.15" y2="28.1"/><circle class="cls-80" cx="36.15" cy="28.1" r="1.87"/><circle class="cls-80" cx="44.44" cy="36.39" r="1.87"/><circle class="cls-80" cx="36.15" cy="36.39" r="1.87"/><circle class="cls-80" cx="36.15" cy="44.69" r="1.87"/><circle class="cls-80" cx="44.44" cy="44.69" r="1.87"/><circle class="cls-80" cx="27.85" cy="36.39" r="1.87"/><rect class="cls-81" x="11.98" y="30.34" width="39.97" height="3.74" rx="1.87" ry="1.87" transform="translate(-13.41 32.04) rotate(-45)"/></svg>