<svg id="Capa_1" data-name="Capa 1" xmlns="http://www.w3.org/2000/svg" xmlns:xlink="http://www.w3.org/1999/xlink" viewBox="0 0 64 64"><defs><style>.cls-1{fill:url(#linear-gradient);}.cls-2{opacity:0.7;}.cls-3{opacity:0;}.cls-4{opacity:0.01;}.cls-5{opacity:0.03;}.cls-6{opacity:0.04;}.cls-7{opacity:0.06;}.cls-8{opacity:0.07;}.cls-9{opacity:0.08;}.cls-10{opacity:0.1;}.cls-11{opacity:0.11;}.cls-12{opacity:0.13;}.cls-13{opacity:0.14;}.cls-14{opacity:0.15;}.cls-15{opacity:0.17;}.cls-16{opacity:0.18;}.cls-17{opacity:0.2;}.cls-18{opacity:0.21;}.cls-19{opacity:0.23;}.cls-20{opacity:0.24;}.cls-21{opacity:0.25;}.cls-22{opacity:0.27;}.cls-23{opacity:0.28;}.cls-24{opacity:0.3;}.cls-25{opacity:0.31;}.cls-26{opacity:0.32;}.cls-27{opacity:0.34;}.cls-28{opacity:0.35;}.cls-29{opacity:0.37;}.cls-30{opacity:0.38;}.cls-31{opacity:0.39;}.cls-32{opacity:0.41;}.cls-33{opacity:0.42;}.cls-34{opacity:0.44;}.cls-35{opacity:0.45;}.cls-36{opacity:0.46;}.cls-37{opacity:0.48;}.cls-38{opacity:0.49;}.cls-39{opacity:0.51;}.cls-40{opacity:0.52;}.cls-41{opacity:0.54;}.cls-42{opacity:0.55;}.cls-43{opacity:0.56;}.cls-44{opacity:0.58;}.cls-45{opacity:0.59;}.cls-46{opacity:0.61;}.cls-47{opacity:0.62;}.cls-48{opacity:0.63;}.cls-49{opacity:0.65;}.cls-50{opacity:0.66;}.cls-51{opacity:0.68;}.cls-52{opacity:0.69;}.cls-53{opacity:0.7;}.cls-54{opacity:0.72;}.cls-55{opacity:0.73;}.cls-56{opacity:0.75;}.cls-57{opacity:0.76;}.cls-58{opacity:0.77;}.cls-59{opacity:0.79;}.cls-60{opacity:0.8;}.cls-61{opacity:0.82;}.cls-62{opacity:0.83;}.cls-63{opacity:0.85;}.cls-64{opacity:0.86;}.cls-65{opacity:0.87;}.cls-66{opacity:0.89;}.cls-67{opacity:0.9;}.cls-68{opacity:0.92;}.cls-69{opacity:0.93;}.cls-70{opacity:0.94;}.cls-71{opacity:0.96;}.cls-72{opacity:0.97;}.cls-73{opacity:0.99;}.cls-74{stroke:#fff;stroke-miterlimit:10;stroke-width:0.74px;fill:url(#linear-gradient-2);}.cls-75{fill:#353535;}.cls-76{fill:#eacabb;}</style><linearGradient id="linear-gradient" x1="3.67" y1="32" x2="60.33" y2="32" gradientUnits="userSpaceOnUse"><stop offset="0" stop-color="#009444"/><stop offset="1" stop-color="#004726"/></linearGradient><linearGradient id="linear-gradient-2" x1="16.27" y1="16.27" x2="47.99" y2="47.99" gradientUnits="userSpaceOnUse"><stop offset="0" stop-color="#c3c4c3"/><stop offset="0.22" stop-color="#dadada"/><stop offset="0.48" stop-color="#eeefee"/><stop offset="0.75" stop-color="#fbfbfb"/><stop offset="1" stop-color="#fff"/></linearGradient></defs><title>Icons Juan</title><circle class="cls-1" cx="32" cy="32" r="28.33"/><g class="cls-2"><path class="cls-3" d="M34.75,56.44A23.39,23.39,0,1,1,58.14,33,23.42,23.42,0,0,1,34.75,56.44Z"/><path class="cls-4" d="M34.72,56.41A23.38,23.38,0,1,1,58.1,33,23.4,23.4,0,0,1,34.72,56.41Z"/><path class="cls-5" d="M34.69,56.38A23.36,23.36,0,1,1,58.05,33,23.39,23.39,0,0,1,34.69,56.38Z"/><path class="cls-6" d="M34.66,56.35A23.35,23.35,0,1,1,58,33,23.38,23.38,0,0,1,34.66,56.35Z"/><path class="cls-7" d="M34.63,56.32A23.34,23.34,0,1,1,58,33,23.36,23.36,0,0,1,34.63,56.32Z"/><path class="cls-8" d="M34.59,56.29A23.32,23.32,0,1,1,57.92,33,23.35,23.35,0,0,1,34.59,56.29Z"/><path class="cls-9" d="M34.56,56.27A23.31,23.31,0,1,1,57.87,33,23.34,23.34,0,0,1,34.56,56.27Z"/><path class="cls-10" d="M34.53,56.24a23.3,23.3,0,1,1,23.3-23.3A23.32,23.32,0,0,1,34.53,56.24Z"/><path class="cls-11" d="M34.5,56.21A23.28,23.28,0,1,1,57.78,32.93,23.31,23.31,0,0,1,34.5,56.21Z"/><path class="cls-12" d="M34.47,56.18A23.27,23.27,0,1,1,57.74,32.91,23.3,23.3,0,0,1,34.47,56.18Z"/><path class="cls-13" d="M34.44,56.15A23.26,23.26,0,1,1,57.69,32.9,23.28,23.28,0,0,1,34.44,56.15Z"/><path class="cls-14" d="M34.4,56.13A23.24,23.24,0,1,1,57.65,32.88,23.27,23.27,0,0,1,34.4,56.13Z"/><path class="cls-15" d="M34.37,56.1A23.23,23.23,0,1,1,57.6,32.87,23.26,23.26,0,0,1,34.37,56.1Z"/><path class="cls-16" d="M34.34,56.07A23.22,23.22,0,1,1,57.56,32.85,23.24,23.24,0,0,1,34.34,56.07Z"/><path class="cls-17" d="M34.31,56a23.2,23.2,0,1,1,23.2-23.2A23.23,23.23,0,0,1,34.31,56Z"/><path class="cls-18" d="M34.28,56A23.19,23.19,0,1,1,57.47,32.83,23.22,23.22,0,0,1,34.28,56Z"/><path class="cls-19" d="M34.25,56A23.18,23.18,0,1,1,57.42,32.81,23.2,23.2,0,0,1,34.25,56Z"/><path class="cls-20" d="M34.21,56A23.16,23.16,0,1,1,57.38,32.8,23.19,23.19,0,0,1,34.21,56Z"/><path class="cls-21" d="M34.18,55.93A23.15,23.15,0,1,1,57.33,32.78,23.18,23.18,0,0,1,34.18,55.93Z"/><path class="cls-22" d="M34.15,55.9A23.14,23.14,0,1,1,57.29,32.77,23.16,23.16,0,0,1,34.15,55.9Z"/><path class="cls-23" d="M34.12,55.87A23.12,23.12,0,1,1,57.24,32.75,23.15,23.15,0,0,1,34.12,55.87Z"/><path class="cls-24" d="M34.09,55.85A23.11,23.11,0,1,1,57.2,32.74,23.14,23.14,0,0,1,34.09,55.85Z"/><path class="cls-25" d="M34.05,55.82a23.1,23.1,0,1,1,23.1-23.1A23.12,23.12,0,0,1,34.05,55.82Z"/><path class="cls-26" d="M34,55.79A23.08,23.08,0,1,1,57.11,32.71,23.11,23.11,0,0,1,34,55.79Z"/><path class="cls-27" d="M34,55.76A23.07,23.07,0,1,1,57.06,32.69,23.1,23.1,0,0,1,34,55.76Z"/><path class="cls-28" d="M34,55.73A23.06,23.06,0,1,1,57,32.68,23.08,23.08,0,0,1,34,55.73Z"/><path class="cls-29" d="M33.93,55.71a23,23,0,1,1,23-23A23.07,23.07,0,0,1,33.93,55.71Z"/><path class="cls-30" d="M33.9,55.68a23,23,0,1,1,23-23A23.06,23.06,0,0,1,33.9,55.68Z"/><path class="cls-31" d="M33.86,55.65a23,23,0,1,1,23-23A23,23,0,0,1,33.86,55.65Z"/><path class="cls-32" d="M33.83,55.62a23,23,0,1,1,23-23A23,23,0,0,1,33.83,55.62Z"/><path class="cls-33" d="M33.8,55.59a23,23,0,1,1,23-23A23,23,0,0,1,33.8,55.59Z"/><path class="cls-34" d="M33.77,55.57a23,23,0,1,1,23-23A23,23,0,0,1,33.77,55.57Z"/><path class="cls-35" d="M33.74,55.54a23,23,0,1,1,23-23A23,23,0,0,1,33.74,55.54Z"/><path class="cls-36" d="M33.71,55.51A22.95,22.95,0,1,1,56.66,32.56,23,23,0,0,1,33.71,55.51Z"/><path class="cls-37" d="M33.67,55.48A22.94,22.94,0,1,1,56.61,32.55,23,23,0,0,1,33.67,55.48Z"/><path class="cls-38" d="M33.64,55.45A22.92,22.92,0,1,1,56.56,32.53,22.95,22.95,0,0,1,33.64,55.45Z"/><path class="cls-39" d="M33.61,55.43A22.91,22.91,0,1,1,56.52,32.52,22.94,22.94,0,0,1,33.61,55.43Z"/><path class="cls-40" d="M33.58,55.4a22.9,22.9,0,1,1,22.9-22.9A22.92,22.92,0,0,1,33.58,55.4Z"/><path class="cls-41" d="M33.55,55.37A22.88,22.88,0,1,1,56.43,32.49,22.91,22.91,0,0,1,33.55,55.37Z"/><path class="cls-42" d="M33.51,55.34A22.87,22.87,0,1,1,56.38,32.47,22.9,22.9,0,0,1,33.51,55.34Z"/><path class="cls-43" d="M33.48,55.31A22.86,22.86,0,1,1,56.34,32.46,22.88,22.88,0,0,1,33.48,55.31Z"/><path class="cls-44" d="M33.45,55.29A22.84,22.84,0,1,1,56.29,32.44,22.87,22.87,0,0,1,33.45,55.29Z"/><path class="cls-45" d="M33.42,55.26A22.83,22.83,0,1,1,56.25,32.43,22.86,22.86,0,0,1,33.42,55.26Z"/><path class="cls-46" d="M33.39,55.23A22.82,22.82,0,1,1,56.2,32.41,22.84,22.84,0,0,1,33.39,55.23Z"/><path class="cls-47" d="M33.36,55.2a22.8,22.8,0,1,1,22.8-22.8A22.83,22.83,0,0,1,33.36,55.2Z"/><path class="cls-48" d="M33.32,55.17A22.79,22.79,0,1,1,56.11,32.38,22.82,22.82,0,0,1,33.32,55.17Z"/><path class="cls-49" d="M33.29,55.14A22.78,22.78,0,1,1,56.07,32.37,22.8,22.8,0,0,1,33.29,55.14Z"/><path class="cls-50" d="M33.26,55.12A22.76,22.76,0,1,1,56,32.35,22.79,22.79,0,0,1,33.26,55.12Z"/><path class="cls-51" d="M33.23,55.09A22.75,22.75,0,1,1,56,32.34,22.78,22.78,0,0,1,33.23,55.09Z"/><path class="cls-52" d="M33.2,55.06A22.74,22.74,0,1,1,55.93,32.32,22.76,22.76,0,0,1,33.2,55.06Z"/><path class="cls-53" d="M33.17,55A22.72,22.72,0,1,1,55.89,32.31,22.75,22.75,0,0,1,33.17,55Z"/><path class="cls-54" d="M33.13,55A22.71,22.71,0,1,1,55.84,32.29,22.74,22.74,0,0,1,33.13,55Z"/><path class="cls-55" d="M33.1,55a22.7,22.7,0,1,1,22.7-22.7A22.72,22.72,0,0,1,33.1,55Z"/><path class="cls-56" d="M33.07,54.95A22.68,22.68,0,1,1,55.75,32.27,22.71,22.71,0,0,1,33.07,54.95Z"/><path class="cls-57" d="M33,54.92A22.67,22.67,0,1,1,55.71,32.25,22.7,22.7,0,0,1,33,54.92Z"/><path class="cls-58" d="M33,54.89A22.66,22.66,0,1,1,55.66,32.24,22.68,22.68,0,0,1,33,54.89Z"/><path class="cls-59" d="M33,54.86A22.64,22.64,0,1,1,55.62,32.22,22.67,22.67,0,0,1,33,54.86Z"/><path class="cls-60" d="M32.94,54.84A22.63,22.63,0,1,1,55.57,32.21,22.66,22.66,0,0,1,32.94,54.84Z"/><path class="cls-61" d="M32.91,54.81A22.62,22.62,0,1,1,55.53,32.19,22.64,22.64,0,0,1,32.91,54.81Z"/><path class="cls-62" d="M32.88,54.78a22.6,22.6,0,1,1,22.6-22.6A22.63,22.63,0,0,1,32.88,54.78Z"/><path class="cls-63" d="M32.85,54.75A22.59,22.59,0,1,1,55.44,32.16,22.62,22.62,0,0,1,32.85,54.75Z"/><path class="cls-64" d="M32.82,54.72A22.58,22.58,0,1,1,55.39,32.15,22.6,22.6,0,0,1,32.82,54.72Z"/><path class="cls-65" d="M32.78,54.7A22.56,22.56,0,1,1,55.35,32.13,22.59,22.59,0,0,1,32.78,54.7Z"/><path class="cls-66" d="M32.75,54.67A22.55,22.55,0,1,1,55.3,32.12,22.58,22.58,0,0,1,32.75,54.67Z"/><path class="cls-67" d="M32.72,54.64A22.54,22.54,0,1,1,55.26,32.1,22.56,22.56,0,0,1,32.72,54.64Z"/><path class="cls-68" d="M32.69,54.61A22.52,22.52,0,1,1,55.21,32.09,22.55,22.55,0,0,1,32.69,54.61Z"/><path class="cls-69" d="M32.66,54.58A22.51,22.51,0,1,1,55.17,32.07,22.54,22.54,0,0,1,32.66,54.58Z"/><path class="cls-70" d="M32.63,54.56a22.5,22.5,0,1,1,22.5-22.5A22.52,22.52,0,0,1,32.63,54.56Z"/><path class="cls-71" d="M32.59,54.53A22.48,22.48,0,1,1,55.08,32,22.51,22.51,0,0,1,32.59,54.53Z"/><path class="cls-72" d="M32.56,54.5A22.47,22.47,0,1,1,55,32,22.5,22.5,0,0,1,32.56,54.5Z"/><path class="cls-73" d="M32.53,54.47A22.46,22.46,0,1,1,55,32,22.48,22.48,0,0,1,32.53,54.47Z"/><path d="M32.5,54.44A22.44,22.44,0,1,1,54.94,32,22.47,22.47,0,0,1,32.5,54.44Z"/></g><path class="cls-74" d="M32,54.44A22.44,22.44,0,1,1,54.44,32,22.47,22.47,0,0,1,32,54.44Z"/><path class="cls-75" d="M16.88,20.55a5,5,0,0,1,4-1.89A4.75,4.75,0,0,1,25.18,21c.89,1.38,1.8,2.73,2.73,4.13-1.48,0-2.1,1.22-2.64,2.51a1,1,0,0,1-.68.45c-1.17.23-2.36.37-3.53.62-.72.15-.87.09-.74-.65.31-1.75.65-3.5,1-5.24a1.39,1.39,0,0,0-1.14-1.71C19.12,20.9,18.06,20.74,16.88,20.55Zm5.95,4.66v-.28l2.25-.35-2.22-.36-.42,2.41,1-.48-.76-.34,1-.43Zm2.55,1,0,.28-2.13.34,2.06.36.21-1.47-.79.22V26Z"/><path class="cls-75" d="M37.33,35.85C39.1,35.14,39,33.32,40,32.09l1.2.64c1.58.87,3.17,1.73,4.74,2.62a2.31,2.31,0,0,1,1,3.28,2.35,2.35,0,0,1-3.35.73C41.54,38.2,39.48,37.06,37.33,35.85Zm9.19,1.59A1.6,1.6,0,1,0,44.94,39,1.59,1.59,0,0,0,46.53,37.44Z"/><path class="cls-75" d="M20.23,26c-2-.58-3.55-2.17-3.5-3.74,1.19.19,2.37.36,3.53.59a.71.71,0,0,1,.42.55C20.57,24.3,20.39,25.16,20.23,26Z"/><path class="cls-76" d="M28.73,31.41a20.68,20.68,0,0,1,2.12.71,4.11,4.11,0,0,1,2.59,4c0,.58,0,1.15,0,1.73,0,.22.22.43.34.64.1-.2.28-.41.28-.61,0-1.09,0-2.19,0-3.37l6.1,3.32c-.47,1-1,1.85-1.34,2.79a5.08,5.08,0,0,0-.39,1.72c-.05,1.52,0,3,0,4.56,0,.41-.09.63-.56.63-2.8,0-5.6,0-8.41,0a2.05,2.05,0,0,1-.38-.09q0-1.33,0-2.65c0-1.6,0-3.2,0-4.79a2.42,2.42,0,0,0-.44-1.27c-1.31-1.8-2.65-3.57-4-5.34a2.16,2.16,0,0,1-.26-2.48c.65-1.31,1.24-2.65,1.86-4a1.83,1.83,0,0,1,1.61-1.21c2,0,4,0,6.14,0a3.05,3.05,0,0,1-2.63,2.51,1.63,1.63,0,0,0-1.73,1.31C29.38,30.17,29,30.78,28.73,31.41Z"/><path class="cls-76" d="M38.87,26.31a2.8,2.8,0,0,1-.14.51c-.94,2.07-1.88,4.14-2.85,6.2a1.38,1.38,0,0,1-1.54.84,1.35,1.35,0,0,1-1.22-1.25,2,2,0,0,1,.19-1q1.33-3,2.71-5.92a1.49,1.49,0,0,1,1.71-.92A1.53,1.53,0,0,1,38.87,26.31Z"/><path class="cls-76" d="M32.36,32.17l-2.7-1.25a13.48,13.48,0,0,1,.89-1.75c.15-.22.58-.27.9-.33a3.71,3.71,0,0,0,3-2.41c.4-1.07.19-1.37-.93-1.37H32.41a10.44,10.44,0,0,1,.53-1.11,1.43,1.43,0,0,1,1.85-.54,1.41,1.41,0,0,1,.74,1.78C34.51,27.53,33.42,29.84,32.36,32.17Z"/><path class="cls-76" d="M40.85,32.06l-1.25-.61L38.36,34a5.15,5.15,0,0,1-.32.63.94.94,0,0,1-1.27.43.92.92,0,0,1-.5-1.31c.6-1.36,1.22-2.71,1.87-4a1.43,1.43,0,0,1,2.69.42A17.32,17.32,0,0,1,40.85,32.06Z"/><path class="cls-76" d="M28.47,25.06c.47-1,.81-1.83,1.26-2.61a1.35,1.35,0,0,1,1.77-.55,1.44,1.44,0,0,1,.82,1.74c-.32,1.26-.53,1.42-1.79,1.42Z"/></svg>