<svg id="Capa_1" data-name="Capa 1" xmlns="http://www.w3.org/2000/svg" xmlns:xlink="http://www.w3.org/1999/xlink" viewBox="0 0 64 64"><defs><style>.cls-1{fill:url(#linear-gradient);}.cls-2{opacity:0.7;}.cls-3{opacity:0;}.cls-4{opacity:0.01;}.cls-5{opacity:0.03;}.cls-6{opacity:0.04;}.cls-7{opacity:0.06;}.cls-8{opacity:0.07;}.cls-9{opacity:0.08;}.cls-10{opacity:0.1;}.cls-11{opacity:0.11;}.cls-12{opacity:0.13;}.cls-13{opacity:0.14;}.cls-14{opacity:0.15;}.cls-15{opacity:0.17;}.cls-16{opacity:0.18;}.cls-17{opacity:0.2;}.cls-18{opacity:0.21;}.cls-19{opacity:0.23;}.cls-20{opacity:0.24;}.cls-21{opacity:0.25;}.cls-22{opacity:0.27;}.cls-23{opacity:0.28;}.cls-24{opacity:0.3;}.cls-25{opacity:0.31;}.cls-26{opacity:0.32;}.cls-27{opacity:0.34;}.cls-28{opacity:0.35;}.cls-29{opacity:0.37;}.cls-30{opacity:0.38;}.cls-31{opacity:0.39;}.cls-32{opacity:0.41;}.cls-33{opacity:0.42;}.cls-34{opacity:0.44;}.cls-35{opacity:0.45;}.cls-36{opacity:0.46;}.cls-37{opacity:0.48;}.cls-38{opacity:0.49;}.cls-39{opacity:0.51;}.cls-40{opacity:0.52;}.cls-41{opacity:0.54;}.cls-42{opacity:0.55;}.cls-43{opacity:0.56;}.cls-44{opacity:0.58;}.cls-45{opacity:0.59;}.cls-46{opacity:0.61;}.cls-47{opacity:0.62;}.cls-48{opacity:0.63;}.cls-49{opacity:0.65;}.cls-50{opacity:0.66;}.cls-51{opacity:0.68;}.cls-52{opacity:0.69;}.cls-53{opacity:0.7;}.cls-54{opacity:0.72;}.cls-55{opacity:0.73;}.cls-56{opacity:0.75;}.cls-57{opacity:0.76;}.cls-58{opacity:0.77;}.cls-59{opacity:0.79;}.cls-60{opacity:0.8;}.cls-61{opacity:0.82;}.cls-62{opacity:0.83;}.cls-63{opacity:0.85;}.cls-64{opacity:0.86;}.cls-65{opacity:0.87;}.cls-66{opacity:0.89;}.cls-67{opacity:0.9;}.cls-68{opacity:0.92;}.cls-69{opacity:0.93;}.cls-70{opacity:0.94;}.cls-71{opacity:0.96;}.cls-72{opacity:0.97;}.cls-73{opacity:0.99;}.cls-74{stroke:#fff;stroke-miterlimit:10;stroke-width:0.74px;fill:url(#linear-gradient-2);}.cls-75{fill:#267f0d;}.cls-76{fill:#232323;}</style><linearGradient id="linear-gradient" x1="4.01" y1="32" x2="60.68" y2="32" gradientUnits="userSpaceOnUse"><stop offset="0" stop-color="#009444"/><stop offset="1" stop-color="#004726"/></linearGradient><linearGradient id="linear-gradient-2" x1="16.61" y1="16.27" x2="48.34" y2="47.99" gradientUnits="userSpaceOnUse"><stop offset="0" stop-color="#c3c4c3"/><stop offset="0.22" stop-color="#dadada"/><stop offset="0.48" stop-color="#eeefee"/><stop offset="0.75" stop-color="#fbfbfb"/><stop offset="1" stop-color="#fff"/></linearGradient></defs><title>Icons Juan</title><circle class="cls-1" cx="32.34" cy="32" r="28.33"/><g class="cls-2"><path class="cls-3" d="M35.1,56.44A23.39,23.39,0,1,1,58.49,33,23.42,23.42,0,0,1,35.1,56.44Z"/><path class="cls-4" d="M35.06,56.41A23.38,23.38,0,1,1,58.44,33,23.4,23.4,0,0,1,35.06,56.41Z"/><path class="cls-5" d="M35,56.38A23.36,23.36,0,1,1,58.4,33,23.39,23.39,0,0,1,35,56.38Z"/><path class="cls-6" d="M35,56.35A23.35,23.35,0,1,1,58.35,33,23.38,23.38,0,0,1,35,56.35Z"/><path class="cls-7" d="M35,56.32A23.34,23.34,0,1,1,58.31,33,23.36,23.36,0,0,1,35,56.32Z"/><path class="cls-8" d="M34.94,56.29A23.32,23.32,0,1,1,58.26,33,23.35,23.35,0,0,1,34.94,56.29Z"/><path class="cls-9" d="M34.91,56.27A23.31,23.31,0,1,1,58.22,33,23.34,23.34,0,0,1,34.91,56.27Z"/><path class="cls-10" d="M34.87,56.24a23.3,23.3,0,1,1,23.3-23.3A23.32,23.32,0,0,1,34.87,56.24Z"/><path class="cls-11" d="M34.84,56.21A23.28,23.28,0,1,1,58.13,32.93,23.31,23.31,0,0,1,34.84,56.21Z"/><path class="cls-12" d="M34.81,56.18A23.27,23.27,0,1,1,58.08,32.91,23.3,23.3,0,0,1,34.81,56.18Z"/><path class="cls-13" d="M34.78,56.15A23.26,23.26,0,1,1,58,32.9,23.28,23.28,0,0,1,34.78,56.15Z"/><path class="cls-14" d="M34.75,56.13A23.24,23.24,0,1,1,58,32.88,23.27,23.27,0,0,1,34.75,56.13Z"/><path class="cls-15" d="M34.72,56.1A23.23,23.23,0,1,1,57.94,32.87,23.26,23.26,0,0,1,34.72,56.1Z"/><path class="cls-16" d="M34.68,56.07A23.22,23.22,0,1,1,57.9,32.85,23.24,23.24,0,0,1,34.68,56.07Z"/><path class="cls-17" d="M34.65,56a23.2,23.2,0,1,1,23.2-23.2A23.23,23.23,0,0,1,34.65,56Z"/><path class="cls-18" d="M34.62,56A23.19,23.19,0,1,1,57.81,32.83,23.22,23.22,0,0,1,34.62,56Z"/><path class="cls-19" d="M34.59,56A23.18,23.18,0,1,1,57.76,32.81,23.2,23.2,0,0,1,34.59,56Z"/><path class="cls-20" d="M34.56,56A23.16,23.16,0,1,1,57.72,32.8,23.19,23.19,0,0,1,34.56,56Z"/><path class="cls-21" d="M34.52,55.93A23.15,23.15,0,1,1,57.67,32.78,23.18,23.18,0,0,1,34.52,55.93Z"/><path class="cls-22" d="M34.49,55.9A23.14,23.14,0,1,1,57.63,32.77,23.16,23.16,0,0,1,34.49,55.9Z"/><path class="cls-23" d="M34.46,55.87A23.12,23.12,0,1,1,57.58,32.75,23.15,23.15,0,0,1,34.46,55.87Z"/><path class="cls-24" d="M34.43,55.85A23.11,23.11,0,1,1,57.54,32.74,23.14,23.14,0,0,1,34.43,55.85Z"/><path class="cls-25" d="M34.4,55.82a23.1,23.1,0,1,1,23.1-23.1A23.12,23.12,0,0,1,34.4,55.82Z"/><path class="cls-26" d="M34.37,55.79A23.08,23.08,0,1,1,57.45,32.71,23.11,23.11,0,0,1,34.37,55.79Z"/><path class="cls-27" d="M34.33,55.76A23.07,23.07,0,1,1,57.4,32.69,23.1,23.1,0,0,1,34.33,55.76Z"/><path class="cls-28" d="M34.3,55.73A23.06,23.06,0,1,1,57.36,32.68,23.08,23.08,0,0,1,34.3,55.73Z"/><path class="cls-29" d="M34.27,55.71a23,23,0,1,1,23-23A23.07,23.07,0,0,1,34.27,55.71Z"/><path class="cls-30" d="M34.24,55.68a23,23,0,1,1,23-23A23.06,23.06,0,0,1,34.24,55.68Z"/><path class="cls-31" d="M34.21,55.65a23,23,0,1,1,23-23A23,23,0,0,1,34.21,55.65Z"/><path class="cls-32" d="M34.18,55.62a23,23,0,1,1,23-23A23,23,0,0,1,34.18,55.62Z"/><path class="cls-33" d="M34.14,55.59a23,23,0,1,1,23-23A23,23,0,0,1,34.14,55.59Z"/><path class="cls-34" d="M34.11,55.57a23,23,0,1,1,23-23A23,23,0,0,1,34.11,55.57Z"/><path class="cls-35" d="M34.08,55.54a23,23,0,1,1,23-23A23,23,0,0,1,34.08,55.54Z"/><path class="cls-36" d="M34,55.51A22.95,22.95,0,1,1,57,32.56,23,23,0,0,1,34,55.51Z"/><path class="cls-37" d="M34,55.48A22.94,22.94,0,1,1,57,32.55,23,23,0,0,1,34,55.48Z"/><path class="cls-38" d="M34,55.45A22.92,22.92,0,1,1,56.91,32.53,22.95,22.95,0,0,1,34,55.45Z"/><path class="cls-39" d="M34,55.43A22.91,22.91,0,1,1,56.86,32.52,22.94,22.94,0,0,1,34,55.43Z"/><path class="cls-40" d="M33.92,55.4a22.9,22.9,0,1,1,22.9-22.9A22.92,22.92,0,0,1,33.92,55.4Z"/><path class="cls-41" d="M33.89,55.37A22.88,22.88,0,1,1,56.77,32.49,22.91,22.91,0,0,1,33.89,55.37Z"/><path class="cls-42" d="M33.86,55.34A22.87,22.87,0,1,1,56.73,32.47,22.9,22.9,0,0,1,33.86,55.34Z"/><path class="cls-43" d="M33.83,55.31A22.86,22.86,0,1,1,56.68,32.46,22.88,22.88,0,0,1,33.83,55.31Z"/><path class="cls-44" d="M33.79,55.29A22.84,22.84,0,1,1,56.64,32.44,22.87,22.87,0,0,1,33.79,55.29Z"/><path class="cls-45" d="M33.76,55.26A22.83,22.83,0,1,1,56.59,32.43,22.86,22.86,0,0,1,33.76,55.26Z"/><path class="cls-46" d="M33.73,55.23A22.82,22.82,0,1,1,56.55,32.41,22.84,22.84,0,0,1,33.73,55.23Z"/><path class="cls-47" d="M33.7,55.2A22.8,22.8,0,1,1,56.5,32.4,22.83,22.83,0,0,1,33.7,55.2Z"/><path class="cls-48" d="M33.67,55.17A22.79,22.79,0,1,1,56.46,32.38,22.82,22.82,0,0,1,33.67,55.17Z"/><path class="cls-49" d="M33.64,55.14A22.78,22.78,0,1,1,56.41,32.37,22.8,22.8,0,0,1,33.64,55.14Z"/><path class="cls-50" d="M33.6,55.12A22.76,22.76,0,1,1,56.37,32.35,22.79,22.79,0,0,1,33.6,55.12Z"/><path class="cls-51" d="M33.57,55.09A22.75,22.75,0,1,1,56.32,32.34,22.78,22.78,0,0,1,33.57,55.09Z"/><path class="cls-52" d="M33.54,55.06A22.74,22.74,0,1,1,56.28,32.32,22.76,22.76,0,0,1,33.54,55.06Z"/><path class="cls-53" d="M33.51,55A22.72,22.72,0,1,1,56.23,32.31,22.75,22.75,0,0,1,33.51,55Z"/><path class="cls-54" d="M33.48,55A22.71,22.71,0,1,1,56.19,32.29,22.74,22.74,0,0,1,33.48,55Z"/><path class="cls-55" d="M33.44,55a22.7,22.7,0,1,1,22.7-22.7A22.72,22.72,0,0,1,33.44,55Z"/><path class="cls-56" d="M33.41,54.95A22.68,22.68,0,1,1,56.1,32.27,22.71,22.71,0,0,1,33.41,54.95Z"/><path class="cls-57" d="M33.38,54.92A22.67,22.67,0,1,1,56.05,32.25,22.7,22.7,0,0,1,33.38,54.92Z"/><path class="cls-58" d="M33.35,54.89A22.66,22.66,0,1,1,56,32.24,22.68,22.68,0,0,1,33.35,54.89Z"/><path class="cls-59" d="M33.32,54.86A22.64,22.64,0,1,1,56,32.22,22.67,22.67,0,0,1,33.32,54.86Z"/><path class="cls-60" d="M33.29,54.84A22.63,22.63,0,1,1,55.92,32.21,22.66,22.66,0,0,1,33.29,54.84Z"/><path class="cls-61" d="M33.25,54.81A22.62,22.62,0,1,1,55.87,32.19,22.64,22.64,0,0,1,33.25,54.81Z"/><path class="cls-62" d="M33.22,54.78a22.6,22.6,0,1,1,22.6-22.6A22.63,22.63,0,0,1,33.22,54.78Z"/><path class="cls-63" d="M33.19,54.75A22.59,22.59,0,1,1,55.78,32.16,22.62,22.62,0,0,1,33.19,54.75Z"/><path class="cls-64" d="M33.16,54.72A22.58,22.58,0,1,1,55.74,32.15,22.6,22.6,0,0,1,33.16,54.72Z"/><path class="cls-65" d="M33.13,54.7A22.56,22.56,0,1,1,55.69,32.13,22.59,22.59,0,0,1,33.13,54.7Z"/><path class="cls-66" d="M33.1,54.67A22.55,22.55,0,1,1,55.65,32.12,22.58,22.58,0,0,1,33.1,54.67Z"/><path class="cls-67" d="M33.06,54.64A22.54,22.54,0,1,1,55.6,32.1,22.56,22.56,0,0,1,33.06,54.64Z"/><path class="cls-68" d="M33,54.61A22.52,22.52,0,1,1,55.56,32.09,22.55,22.55,0,0,1,33,54.61Z"/><path class="cls-69" d="M33,54.58A22.51,22.51,0,1,1,55.51,32.07,22.54,22.54,0,0,1,33,54.58Z"/><path class="cls-70" d="M33,54.56a22.5,22.5,0,1,1,22.5-22.5A22.52,22.52,0,0,1,33,54.56Z"/><path class="cls-71" d="M32.94,54.53A22.48,22.48,0,1,1,55.42,32,22.51,22.51,0,0,1,32.94,54.53Z"/><path class="cls-72" d="M32.9,54.5A22.47,22.47,0,1,1,55.37,32,22.5,22.5,0,0,1,32.9,54.5Z"/><path class="cls-73" d="M32.87,54.47A22.46,22.46,0,1,1,55.33,32,22.48,22.48,0,0,1,32.87,54.47Z"/><path d="M32.84,54.44A22.44,22.44,0,1,1,55.28,32,22.47,22.47,0,0,1,32.84,54.44Z"/></g><path class="cls-74" d="M32.34,54.44A22.44,22.44,0,1,1,54.79,32,22.47,22.47,0,0,1,32.34,54.44Z"/><polygon class="cls-75" points="45.96 21.91 41.56 17.5 28.67 30.39 23.13 24.85 18.72 29.25 28.67 39.2 28.67 39.19 28.67 39.2 45.96 21.91"/><rect class="cls-76" x="20.17" y="41.81" width="24.35" height="4.31"/></svg>